<svg id="calendar_1_" data-name="calendar (1)" xmlns="http://www.w3.org/2000/svg" width="15" height="15" viewBox="0 0 15 15">
  <path id="Path_15569" data-name="Path 15569" d="M11.875,1.25H11.25V.625a.625.625,0,1,0-1.25,0V1.25H5V.625a.625.625,0,1,0-1.25,0V1.25H3.125A3.129,3.129,0,0,0,0,4.375v7.5A3.129,3.129,0,0,0,3.125,15h8.75A3.129,3.129,0,0,0,15,11.875v-7.5A3.129,3.129,0,0,0,11.875,1.25ZM1.25,4.375A1.875,1.875,0,0,1,3.125,2.5h8.75A1.875,1.875,0,0,1,13.75,4.375V5H1.25ZM11.875,13.75H3.125A1.875,1.875,0,0,1,1.25,11.875V6.25h12.5v5.625A1.875,1.875,0,0,1,11.875,13.75Z" fill="#ff6036"/>
  <circle id="Ellipse_222" data-name="Ellipse 222" cx="0.937" cy="0.937" r="0.937" transform="translate(6.562 8.437)" fill="#ff6036"/>
  <circle id="Ellipse_223" data-name="Ellipse 223" cx="0.937" cy="0.937" r="0.937" transform="translate(3.437 8.437)" fill="#ff6036"/>
  <circle id="Ellipse_224" data-name="Ellipse 224" cx="0.937" cy="0.937" r="0.937" transform="translate(9.687 8.437)" fill="#ff6036"/>
</svg>
