<svg xmlns="http://www.w3.org/2000/svg" width="25" height="25.003" viewBox="0 0 25 25.003">
  <g id="phone-flip" transform="translate(0.004 0.007)" fill="none">
    <path d="M0,6.5C0,14.456,10.547,25,18.493,25a6.4,6.4,0,0,0,4.562-1.854l1.041-1.2a3.21,3.21,0,0,0-.052-4.51c-.031-.031-2.541-1.958-2.541-1.958a3.235,3.235,0,0,0-4.458,0L15.525,16.7A13.326,13.326,0,0,1,8.307,9.457L9.515,7.936a3.214,3.214,0,0,0,0-4.458S7.589.969,7.557.938A3.225,3.225,0,0,0,3,.938L1.9,1.885A6.4,6.4,0,0,0,0,6.489Z" stroke="none"/>
    <path d="M 5.276542663574219 1.492494583129883 C 4.815851211547852 1.492494583129883 4.382501602172852 1.672124862670898 4.05632209777832 1.99830436706543 L 4.018482208251953 2.036144256591797 L 2.924888610839844 2.983917236328125 C 1.990009307861328 3.927701950073242 1.496152877807617 5.138565063476562 1.496152877807617 6.488744735717773 L 1.496152877807617 6.499164581298828 C 1.496152877807617 8.147735595703125 2.049051284790039 10.06558513641357 3.095071792602539 12.04537487030029 C 4.11821174621582 13.98183441162109 5.5809326171875 15.9269847869873 7.325122833251953 17.67052459716797 C 9.068931579589844 19.41367530822754 11.01431179046631 20.87562561035156 12.95095157623291 21.8983039855957 C 14.93013191223145 22.94345474243164 16.84659194946289 23.49589538574219 18.49314117431641 23.49589538574219 C 19.82178497314453 23.49589538574219 21.05080413818359 23.0060920715332 21.95968437194824 22.1156005859375 L 22.99878120422363 20.92064476013184 L 23.03574180603027 20.8836841583252 C 23.33614158630371 20.58329391479492 23.49961280822754 20.17037582397461 23.49603271484375 19.72099494934082 C 23.4925479888916 19.28202056884766 23.32921981811523 18.86845779418945 23.03437805175781 18.54824829101562 C 22.72112464904785 18.30412483215332 21.41327285766602 17.29878807067871 20.58971214294434 16.66660499572754 L 20.52714157104492 16.61857604980469 L 20.46995162963867 16.56424331665039 C 20.1455020904541 16.25602340698242 19.719482421875 16.08627510070801 19.27036285400391 16.08627510070801 C 18.82359313964844 16.08627510070801 18.40195083618164 16.25448608398438 18.08312225341797 16.55991363525391 L 18.03523254394531 16.60579490661621 L 15.76327228546143 18.42645454406738 L 14.93816184997559 18.07578468322754 C 11.23751163482666 16.50302505493164 8.619611740112305 13.88180446624756 6.934881210327148 10.06233501434326 L 6.569202423095703 9.233294486999512 L 8.386251449584961 6.946334838867188 L 8.436801910400391 6.894014358520508 C 9.069002151489258 6.239845275878906 9.069002151489258 5.175424575805664 8.436801910400391 4.521255493164062 L 8.377531051635742 4.459905624389648 L 8.325582504272461 4.392244338989258 C 7.693361282348633 3.568647384643555 6.688009262084961 2.26080322265625 6.44390869140625 1.947591781616211 C 6.124475479125977 1.653556823730469 5.7127685546875 1.492494583129883 5.276542663574219 1.492494583129883 M 5.276538848876953 -0.007505416870117188 C 6.101924896240234 -0.007505416870117188 6.927312850952148 0.3075447082519531 7.557422637939453 0.9376449584960938 C 7.588661193847656 0.9688854217529297 9.515432357788086 3.478864669799805 9.515432357788086 3.478864669799805 C 10.7131519317627 4.718225479125977 10.7131519317627 6.697044372558594 9.515432357788086 7.936405181884766 L 8.307302474975586 9.456974983215332 C 9.827881813049316 12.90428447723389 12.19208240509033 15.27886486053467 15.52487182617188 16.69528579711914 L 17.04546165466309 15.47674465179443 C 18.28484344482422 14.28945446014404 20.25327301025391 14.28945446014404 21.50307273864746 15.47674465179443 C 21.50307273864746 15.47674465179443 24.01308250427246 17.40348434448242 24.0443229675293 17.43473434448242 C 25.30453109741211 18.69492530822754 25.30453109741211 20.73623466491699 24.09639167785645 21.94435501098633 L 23.05490112304688 23.14205551147461 C 21.85718154907227 24.33976554870605 20.23244094848633 24.99589538574219 18.49314117431641 24.99589538574219 C 10.54652214050293 24.99589538574219 -0.003847122192382812 14.45609474182129 -0.003847122192382812 6.499164581298828 L -0.003847122192382812 6.488744735717773 C -0.003847122192382812 4.749475479125977 0.6522922515869141 3.124753952026367 1.902091979980469 1.885395050048828 L 2.995662689208984 0.9376449584960938 C 3.625766754150391 0.3075447082519531 4.451152801513672 -0.007505416870117188 5.276538848876953 -0.007505416870117188 Z" stroke="none" fill="#1d2432"/>
  </g>
</svg>
