<svg xmlns="http://www.w3.org/2000/svg" width="17.365" height="17.354" viewBox="0 0 17.365 17.354">
  <g id="home_1_" data-name="home (1)" transform="translate(0 -0.16)">
    <path id="Path_15527" data-name="Path 15527" d="M194.171,319.841A2.171,2.171,0,0,0,192,322.012v4.341h4.341v-4.341A2.171,2.171,0,0,0,194.171,319.841Z" transform="translate(-185.488 -308.839)" fill="#ff6036"/>
    <g id="Group_2834" data-name="Group 2834" transform="translate(0 0.16)">
      <path id="Path_15528" data-name="Path 15528" d="M12.3,13.172v4.341h2.894a2.171,2.171,0,0,0,2.171-2.171v-6.6a1.447,1.447,0,0,0-.407-1.007L10.809,1.09A2.894,2.894,0,0,0,6.719.929q-.084.077-.161.161L.42,7.734A1.447,1.447,0,0,0,0,8.755v6.588a2.171,2.171,0,0,0,2.171,2.171H5.065V13.172a3.618,3.618,0,1,1,7.235,0Z" transform="translate(0 -0.16)" fill="#ff6036"/>
      <path id="Path_15529" data-name="Path 15529" d="M194.171,319.841A2.171,2.171,0,0,0,192,322.012v4.341h4.341v-4.341A2.171,2.171,0,0,0,194.171,319.841Z" transform="translate(-185.488 -308.999)" fill="#ff6036"/>
    </g>
  </g>
</svg>
