<svg xmlns="http://www.w3.org/2000/svg" width="12" height="16" viewBox="0 0 12 16">
  <g id="user_5_" data-name="user (5)" transform="translate(-3)">
    <path id="Path_15566" data-name="Path 15566" d="M10,8A4,4,0,1,0,6,4a4,4,0,0,0,4,4Zm0-6.667A2.667,2.667,0,1,1,7.333,4,2.667,2.667,0,0,1,10,1.333Z" transform="translate(-1)" fill="#ff6036"/>
    <path id="Path_15567" data-name="Path 15567" d="M9,14a6.007,6.007,0,0,0-6,6,.667.667,0,1,0,1.333,0,4.667,4.667,0,0,1,9.333,0A.667.667,0,0,0,15,20,6.007,6.007,0,0,0,9,14Z" transform="translate(0 -4.667)" fill="#ff6036"/>
  </g>
</svg>
